<svg id="Layer_1" data-name="Layer 1" xmlns="http://www.w3.org/2000/svg" xmlns:xlink="http://www.w3.org/1999/xlink" viewBox="0 0 3135.64 678.13"><defs><style>.cls-1{fill:url(#linear-gradient);}.cls-2{fill:url(#linear-gradient-2);}.cls-3{fill:url(#linear-gradient-3);}.cls-4{fill:url(#linear-gradient-4);}.cls-5{fill:url(#linear-gradient-5);}.cls-6{fill:url(#linear-gradient-6);}.cls-7{fill:url(#linear-gradient-7);}.cls-8{fill:url(#linear-gradient-8);}.cls-9{fill:url(#linear-gradient-9);}.cls-10{fill:url(#linear-gradient-10);}</style><linearGradient id="linear-gradient" x1="120.08" y1="568.33" x2="575.09" y2="568.33" gradientUnits="userSpaceOnUse"><stop offset="0" stop-color="#00aeef"/><stop offset="0.99" stop-color="#ec008c"/></linearGradient><linearGradient id="linear-gradient-2" x1="0" y1="395.78" x2="672.13" y2="395.78" xlink:href="#linear-gradient"/><linearGradient id="linear-gradient-3" x1="0" y1="185" x2="672.13" y2="185" xlink:href="#linear-gradient"/><linearGradient id="linear-gradient-4" x1="809.8" y1="369.99" x2="1197.16" y2="369.99" gradientUnits="userSpaceOnUse"><stop offset="0" stop-color="#00aeef"/><stop offset="1" stop-color="#ec008c"/></linearGradient><linearGradient id="linear-gradient-5" x1="1259.75" y1="422.42" x2="1644.06" y2="422.42" xlink:href="#linear-gradient-4"/><linearGradient id="linear-gradient-6" x1="1337.75" y1="422.42" x2="1566.06" y2="422.42" xlink:href="#linear-gradient-4"/><linearGradient id="linear-gradient-7" x1="1606.13" y1="371.14" x2="2056.54" y2="371.14" xlink:href="#linear-gradient-4"/><linearGradient id="linear-gradient-8" x1="2154.76" y1="422.87" x2="2534.76" y2="422.87" xlink:href="#linear-gradient-4"/><linearGradient id="linear-gradient-9" x1="2786.64" y1="425.77" x2="3166.64" y2="425.77" xlink:href="#linear-gradient-4"/><linearGradient id="linear-gradient-10" x1="2570.4" y1="370.12" x2="2687.4" y2="370.12" xlink:href="#linear-gradient-4"/></defs><polygon class="cls-1" points="348.6 458.52 208.91 541.69 120.08 594.58 256.72 676.9 345.55 624.01 435.4 678.13 575.09 594.96 485.24 540.83 348.6 458.52"/><polygon class="cls-2" points="485.56 310.25 348.11 227.45 207.27 311.31 155.45 342.17 15.76 425.33 0 434.72 0 522.25 64.37 561.03 153.21 508.13 292.9 424.96 344.72 394.11 400.43 427.65 537.05 509.97 626.92 564.11 672.13 537.19 672.13 422.63 541.26 343.79 485.56 310.25"/><polygon class="cls-3" points="668.09 201.57 530.63 118.77 471.97 83.43 333.48 0 194.9 82.51 150.95 108.68 10.11 192.54 0 198.56 0 364.45 96.78 306.82 148.6 275.97 289.45 192.11 333.39 165.94 392.06 201.28 529.51 284.08 585.2 317.64 672.13 369.99 672.13 204 668.09 201.57"/><polygon class="cls-4" points="1143.38 272.77 1168.43 236.77 1197.16 195.49 813.12 195.49 813.12 316.69 926.87 316.69 957.44 272.77 853.2 272.77 853.2 236.77 1117.46 236.77 1092.41 272.77 1061.85 316.69 985.21 426.83 956.38 468.25 1152 468.25 1152 503.23 892.1 503.23 916.45 468.25 945.27 426.83 1021.91 316.69 1052.47 272.77 998.88 272.77 968.31 316.69 891.67 426.83 862.85 468.25 809.8 544.49 1194.48 544.49 1194.48 426.83 1036.18 426.83 1112.82 316.69 1143.38 272.77"/><path class="cls-5" d="M1451.91,230.27c-106,0-192.16,86.2-192.16,192.15s86.2,192.15,192.16,192.15,192.15-86.2,192.15-192.15S1557.86,230.27,1451.91,230.27Zm0,344.3c-83.9,0-152.16-68.25-152.16-152.15S1368,270.27,1451.91,270.27s152.15,68.25,152.15,152.15S1535.8,574.57,1451.91,574.57Z" transform="translate(-31 -52.43)"/><path class="cls-6" d="M1451.91,308.27a114.15,114.15,0,1,0,114.15,114.15A114.28,114.28,0,0,0,1451.91,308.27Zm0,188.3a74.15,74.15,0,1,1,74.15-74.15A74.24,74.24,0,0,1,1451.91,496.57Z" transform="translate(-31 -52.43)"/><polygon class="cls-7" points="1920.59 311.39 1901.44 278.5 1877.03 236.58 1854.27 275.03 1833.53 310.07 1808.48 352.39 1720.5 501.01 1681.65 501.01 1789.21 319.31 1814.26 276.98 1835 241.95 1857.76 203.5 1854.23 197.43 1811.78 197.43 1810.42 199.74 1789.68 234.77 1764.63 277.09 1632.08 501.01 1606.13 544.84 1743.78 544.84 1769.72 501.01 1832.88 394.31 1857.94 351.98 1878.68 316.95 1897.83 349.84 1985.86 501.01 1944.72 501.01 1877.09 384.87 1852.04 427.19 1895.02 501.01 1920.55 544.84 2056.54 544.84 2031.01 501.01 1920.59 311.39"/><path class="cls-8" d="M2252.47,326.28c-10.59,0-19.55,8.39-19.64,19,0,.38,0,.76,0,1.15.52,11.4,10.3,20.2,21.71,20.2h276s0,0,0,0a96.63,96.63,0,0,0-8.19-75.31c-.42-.74-.84-1.48-1.28-2.21-14.41-24.15-40.83-38.56-69-38.56H2251.56a96.8,96.8,0,0,0,0,193.6h183.79a56.79,56.79,0,0,1,56.8,56.8,56.32,56.32,0,0,1-3.3,19.07,57,57,0,0,1-37,35.28H2236.12a41.07,41.07,0,0,1-40.71-34.76c0-.15,0-.31-.07-.46a.06.06,0,0,1,0-.06h238.26c11.12,0,20.67-8.52,21.26-19.63,0-.39,0-.79,0-1.19s0-.77,0-1.16c-.57-11-10-19.42-21-19.42H2154.81a.05.05,0,0,0,0,.05V512q0,4.05.33,8a95.74,95.74,0,0,0,9.91,35.28c.08.17.17.34.25.5a72.72,72.72,0,0,0,64.88,39.5h226.92a97.12,97.12,0,0,0,58.37-40,96.55,96.55,0,0,0-1.73-111.15,97.58,97.58,0,0,0-24.41-23.55,96.28,96.28,0,0,0-53.93-16.45H2251.56a56.8,56.8,0,0,1-9.31-112.83,56.67,56.67,0,0,1,18.62,0h188.65c20.33,0,38.46,13.52,43.48,33.22q.23.87.42,1.74a.05.05,0,0,1-.05.06Z" transform="translate(-31 -52.43)"/><path class="cls-9" d="M3145.57,447a97.58,97.58,0,0,0-24.41-23.55A96.28,96.28,0,0,0,3067.23,407H2883.44a56.8,56.8,0,0,1-9.31-112.83,56.67,56.67,0,0,1,18.62,0h188.69c20.3,0,38.4,13.51,43.43,33.18.16.61.3,1.22.44,1.84h-241c-10.55,0-19.47,8.36-19.58,18.92a21.46,21.46,0,0,0,.11,2.39c1.08,10.89,10.59,19,21.54,19h276.12a96.62,96.62,0,0,0-8.18-75.34c-.42-.75-.85-1.5-1.29-2.23-14.41-24.14-40.81-38.54-68.92-38.54H2883.44a96.8,96.8,0,0,0,0,193.6h183.79a56.79,56.79,0,0,1,56.8,56.8,56.32,56.32,0,0,1-3.3,19.07,57,57,0,0,1-37,35.28H2867.94c-19.76,0-37-14-40.44-33.46-.11-.58-.2-1.17-.28-1.76a.05.05,0,0,1,.05-.06h238.3c11.1,0,20.6-8.51,21.21-19.58,0-.41,0-.83,0-1.24s0-.81,0-1.21c-.6-10.95-10-19.37-20.95-19.37h-279.2v33.39q0,4,.33,8a95.74,95.74,0,0,0,9.91,35.28c.35.7.7,1.39,1.07,2.07,12.52,23.54,37.35,37.93,64,37.93h227a97.12,97.12,0,0,0,58.37-40A96.55,96.55,0,0,0,3145.57,447Z" transform="translate(-31 -52.43)"/><polygon class="cls-10" points="2570.4 542.81 2687.4 542.81 2687.4 502.81 2610.36 502.81 2610.36 236.41 2647.44 236.41 2647.44 466.09 2687.4 466.09 2687.4 197.43 2570.4 197.43 2570.4 542.81"/></svg>