<svg id="Layer_1" data-name="Layer 1" xmlns="http://www.w3.org/2000/svg" xmlns:xlink="http://www.w3.org/1999/xlink" viewBox="0 0 456.6 460.68"><defs><style>.cls-1{fill:url(#linear-gradient);}.cls-2{fill:url(#linear-gradient-2);}.cls-3{fill:url(#linear-gradient-3);}</style><linearGradient id="linear-gradient" x1="81.57" y1="386.09" x2="390.68" y2="386.09" gradientUnits="userSpaceOnUse"><stop offset="0" stop-color="#00aeef"/><stop offset="1" stop-color="#ec008c"/></linearGradient><linearGradient id="linear-gradient-2" x1="0" y1="268.87" x2="456.6" y2="268.87" xlink:href="#linear-gradient"/><linearGradient id="linear-gradient-3" x1="0" y1="125.67" x2="456.6" y2="125.67" xlink:href="#linear-gradient"/></defs><polygon class="cls-1" points="236.81 311.49 141.92 367.99 81.57 403.92 174.4 459.84 234.74 423.91 295.79 460.69 390.69 404.18 329.64 367.4 236.81 311.49"/><polygon class="cls-2" points="329.86 210.76 236.49 154.51 140.81 211.48 105.6 232.45 10.71 288.95 0 295.33 0 354.79 43.73 381.13 104.08 345.2 198.98 288.69 234.18 267.73 272.02 290.52 364.84 346.44 425.89 383.22 456.6 364.93 456.6 287.11 367.7 233.55 329.86 210.76"/><polygon class="cls-3" points="453.86 136.93 360.48 80.68 320.63 56.68 226.54 0 132.4 56.05 102.55 73.83 6.87 130.8 0 134.89 0 247.58 65.75 208.44 100.95 187.48 196.63 130.51 226.49 112.73 266.34 136.74 359.72 192.99 397.55 215.78 456.6 251.35 456.6 138.59 453.86 136.93"/></svg>